<mxfile host="app.diagrams.net" modified="2023-04-24T14:14:29.683Z" agent="Mozilla/5.0 (Windows NT 10.0; Win64; x64) AppleWebKit/537.36 (KHTML, like Gecko) Chrome/112.0.0.0 Safari/537.36" etag="Ec1z80CtwOniPAyrgPtQ" version="21.2.1" type="device">
  <diagram name="Page-1" id="DMkZT4tuLowpzY3SF9Iw">
    <mxGraphModel dx="1050" dy="549" grid="1" gridSize="12" guides="1" tooltips="1" connect="1" arrows="1" fold="1" page="1" pageScale="1" pageWidth="827" pageHeight="1169" math="0" shadow="0">
      <root>
        <mxCell id="0" />
        <mxCell id="1" parent="0" />
        <mxCell id="OXuOTnrN0x0EMDRzijwX-4" style="edgeStyle=orthogonalEdgeStyle;rounded=1;orthogonalLoop=1;jettySize=auto;html=1;labelBackgroundColor=none;strokeColor=#0B4D6A;fontColor=default;" edge="1" parent="1" source="OXuOTnrN0x0EMDRzijwX-2" target="OXuOTnrN0x0EMDRzijwX-5">
          <mxGeometry relative="1" as="geometry">
            <mxPoint x="290" y="250" as="targetPoint" />
          </mxGeometry>
        </mxCell>
        <mxCell id="OXuOTnrN0x0EMDRzijwX-2" value="&lt;font style=&quot;font-size: 13px;&quot;&gt;&lt;b&gt;Identificación con grupos&lt;/b&gt;&lt;/font&gt;" style="rounded=1;whiteSpace=wrap;html=1;labelBackgroundColor=none;fillColor=#09555B;strokeColor=#BAC8D3;fontColor=#EEEEEE;" vertex="1" parent="1">
          <mxGeometry x="50" y="180" width="120" height="60" as="geometry" />
        </mxCell>
        <mxCell id="OXuOTnrN0x0EMDRzijwX-6" style="edgeStyle=orthogonalEdgeStyle;rounded=1;orthogonalLoop=1;jettySize=auto;html=1;entryX=0;entryY=0.75;entryDx=0;entryDy=0;labelBackgroundColor=none;strokeColor=#0B4D6A;fontColor=default;" edge="1" parent="1" source="OXuOTnrN0x0EMDRzijwX-3" target="OXuOTnrN0x0EMDRzijwX-5">
          <mxGeometry relative="1" as="geometry" />
        </mxCell>
        <mxCell id="OXuOTnrN0x0EMDRzijwX-3" value="&lt;b&gt;&lt;font style=&quot;font-size: 13px;&quot;&gt;Influencia familiar&lt;/font&gt;&lt;/b&gt;" style="rounded=1;whiteSpace=wrap;html=1;labelBackgroundColor=none;fillColor=#09555B;strokeColor=#BAC8D3;fontColor=#EEEEEE;" vertex="1" parent="1">
          <mxGeometry x="50" y="280" width="120" height="60" as="geometry" />
        </mxCell>
        <mxCell id="OXuOTnrN0x0EMDRzijwX-11" style="edgeStyle=orthogonalEdgeStyle;rounded=1;orthogonalLoop=1;jettySize=auto;html=1;entryX=0;entryY=0.5;entryDx=0;entryDy=0;labelBackgroundColor=none;strokeColor=#0B4D6A;fontColor=default;" edge="1" parent="1" source="OXuOTnrN0x0EMDRzijwX-5" target="OXuOTnrN0x0EMDRzijwX-8">
          <mxGeometry relative="1" as="geometry" />
        </mxCell>
        <mxCell id="OXuOTnrN0x0EMDRzijwX-12" style="edgeStyle=orthogonalEdgeStyle;rounded=1;orthogonalLoop=1;jettySize=auto;html=1;entryX=0;entryY=0.5;entryDx=0;entryDy=0;labelBackgroundColor=none;strokeColor=#0B4D6A;fontColor=default;" edge="1" parent="1" source="OXuOTnrN0x0EMDRzijwX-5" target="OXuOTnrN0x0EMDRzijwX-9">
          <mxGeometry relative="1" as="geometry" />
        </mxCell>
        <mxCell id="OXuOTnrN0x0EMDRzijwX-13" style="edgeStyle=orthogonalEdgeStyle;rounded=1;orthogonalLoop=1;jettySize=auto;html=1;entryX=0;entryY=0.5;entryDx=0;entryDy=0;labelBackgroundColor=none;strokeColor=#0B4D6A;fontColor=default;" edge="1" parent="1" source="OXuOTnrN0x0EMDRzijwX-5" target="OXuOTnrN0x0EMDRzijwX-10">
          <mxGeometry relative="1" as="geometry" />
        </mxCell>
        <mxCell id="OXuOTnrN0x0EMDRzijwX-22" style="edgeStyle=orthogonalEdgeStyle;rounded=1;orthogonalLoop=1;jettySize=auto;html=1;entryX=0.5;entryY=0;entryDx=0;entryDy=0;strokeColor=#990000;" edge="1" parent="1" source="OXuOTnrN0x0EMDRzijwX-5" target="OXuOTnrN0x0EMDRzijwX-14">
          <mxGeometry relative="1" as="geometry">
            <Array as="points">
              <mxPoint x="290" y="200" />
              <mxPoint x="670" y="200" />
            </Array>
          </mxGeometry>
        </mxCell>
        <mxCell id="OXuOTnrN0x0EMDRzijwX-5" value="&lt;font style=&quot;font-size: 13px;&quot;&gt;&lt;b&gt;Identificación partidaria&lt;/b&gt;&lt;/font&gt;" style="rounded=1;whiteSpace=wrap;html=1;labelBackgroundColor=none;fillColor=#dae8fc;strokeColor=#6c8ebf;" vertex="1" parent="1">
          <mxGeometry x="230" y="220" width="120" height="60" as="geometry" />
        </mxCell>
        <mxCell id="OXuOTnrN0x0EMDRzijwX-18" style="edgeStyle=orthogonalEdgeStyle;rounded=1;orthogonalLoop=1;jettySize=auto;html=1;entryX=-0.007;entryY=0.15;entryDx=0;entryDy=0;entryPerimeter=0;labelBackgroundColor=none;strokeColor=#0B4D6A;fontColor=default;" edge="1" parent="1" source="OXuOTnrN0x0EMDRzijwX-8" target="OXuOTnrN0x0EMDRzijwX-14">
          <mxGeometry relative="1" as="geometry" />
        </mxCell>
        <mxCell id="OXuOTnrN0x0EMDRzijwX-8" value="&lt;font style=&quot;font-size: 13px;&quot;&gt;&lt;b&gt;Actitudes hacia los candidatos&lt;/b&gt;&lt;/font&gt;" style="rounded=1;whiteSpace=wrap;html=1;labelBackgroundColor=none;fillColor=#09555B;strokeColor=#BAC8D3;fontColor=#EEEEEE;" vertex="1" parent="1">
          <mxGeometry x="420" y="130" width="120" height="60" as="geometry" />
        </mxCell>
        <mxCell id="OXuOTnrN0x0EMDRzijwX-19" style="edgeStyle=orthogonalEdgeStyle;rounded=1;orthogonalLoop=1;jettySize=auto;html=1;entryX=0;entryY=0.5;entryDx=0;entryDy=0;labelBackgroundColor=none;strokeColor=#0B4D6A;fontColor=default;" edge="1" parent="1" source="OXuOTnrN0x0EMDRzijwX-9" target="OXuOTnrN0x0EMDRzijwX-14">
          <mxGeometry relative="1" as="geometry" />
        </mxCell>
        <mxCell id="OXuOTnrN0x0EMDRzijwX-9" value="&lt;font style=&quot;font-size: 13px;&quot;&gt;&lt;b&gt;Actitudes sobre políticas públicas&lt;/b&gt;&lt;/font&gt;" style="rounded=1;whiteSpace=wrap;html=1;labelBackgroundColor=none;fillColor=#09555B;strokeColor=#BAC8D3;fontColor=#EEEEEE;" vertex="1" parent="1">
          <mxGeometry x="420" y="220" width="120" height="60" as="geometry" />
        </mxCell>
        <mxCell id="OXuOTnrN0x0EMDRzijwX-20" style="edgeStyle=orthogonalEdgeStyle;rounded=1;orthogonalLoop=1;jettySize=auto;html=1;entryX=0;entryY=0.75;entryDx=0;entryDy=0;labelBackgroundColor=none;strokeColor=#0B4D6A;fontColor=default;" edge="1" parent="1" source="OXuOTnrN0x0EMDRzijwX-10" target="OXuOTnrN0x0EMDRzijwX-14">
          <mxGeometry relative="1" as="geometry" />
        </mxCell>
        <mxCell id="OXuOTnrN0x0EMDRzijwX-10" value="&lt;font style=&quot;font-size: 13px;&quot;&gt;&lt;b&gt;Actitudes hacia beneficios de grupos&lt;/b&gt;&lt;/font&gt;" style="rounded=1;whiteSpace=wrap;html=1;labelBackgroundColor=none;fillColor=#09555B;strokeColor=#BAC8D3;fontColor=#EEEEEE;" vertex="1" parent="1">
          <mxGeometry x="420" y="310" width="120" height="60" as="geometry" />
        </mxCell>
        <mxCell id="OXuOTnrN0x0EMDRzijwX-14" value="&lt;font size=&quot;1&quot; style=&quot;&quot;&gt;&lt;b style=&quot;font-size: 14px;&quot;&gt;Voto&lt;/b&gt;&lt;/font&gt;" style="rounded=1;whiteSpace=wrap;html=1;labelBackgroundColor=none;fillColor=#ffe6cc;strokeColor=#d79b00;fontSize=13;" vertex="1" parent="1">
          <mxGeometry x="610" y="220" width="120" height="60" as="geometry" />
        </mxCell>
      </root>
    </mxGraphModel>
  </diagram>
</mxfile>
